<svg xmlns:xlink="http://www.w3.org/1999/xlink" xmlns="http://www.w3.org/2000/svg" class="mud-icon-root mud-icon-default mud-svg-icon mud-icon-size-medium mud-nav-link-icon mud-nav-link-icon-default" focusable="false" viewBox="0 0 24 24" aria-hidden="true" width="24"  height="24" ><!--!--><path d="M22.9041 13.22l-1.8017-4.8804c-.7568-1.9632 1.8277-2.3094 1.8277-2.3094c.5743-.3181 0-.6643 0-.6643c-.6004.1436-1.0444-.6927-1.0444-.6927L21.5469 3.8931c-.1829-.4618-.235-.5197-.0263-1.4144c.2087-.896-.4568-.8525-.5743-.7225c-.1177.1307-.4831.332-.7572.0288c-.2739-.3032-.9658-.2883-.9658-.2883l-.2611-.5778l-.2874 0l-.2869.5776l-5.065 0l0 .1732l-10.5994 0l0-.2888l-.2094 0c-.0256-.2314-.1822-.4044-.1822-.4044c-.862 0-1.0442.7217-1.0442.7217l-.6793 0C.2171 2.4785.6353 3.3443.6353 3.3443l.7568 0l0 2.3389l1.5925 0l.1301.3758l3.9689 0c3.7069 0 3.0541 3.4357 3.0541 3.4357c2.7937 1.4151 4.5428.5202 4.5428.5202c1.3839-.3174 1.6448.9817 1.6448.9817l.9395 4.1296c.0784.7215-.0325 1.1539-.0325 1.1539l.0018.0592l-.0018 0l0 .5829c0 0-.0217.3156.3729.2665l4.3807-.4077c.1061.1983.2995.332.5222.332c.3368 0 .6091-.3017.6091-.6734c0-.0743-.0135-.1312-.0334-.1801l.1333-.001c.3135-1.9351-.313-3.0387-.313-3.0387zM21.1934 1.8399c.1097 0 .1991.0984.1991.2205c0 .1216-.0894.22-.1991.22c-.11 0-.2001-.0984-.2001-.22c0-.1221.0899-.2205.2001-.2205zM15.6725 8.6572c-.0787.5204-.5746.809-.5746.809c-1.694.6294-2.7818.4524-3.6415.1672c-1.0492-.349-.979-1.4675-.979-1.4675c0-1.53 1.4361-1.5011 1.4361-1.5011l1.1745 0c.653 1.7323-.9397 2.5129-.9397 2.5129c-.2094.0572 0 .2309 0 .2309c.9658-.0288 1.7486-1.7616 1.7486-1.7616l-.0256-.722l.3649-.2602c1.4363 0 1.5147 1.4731 1.4363 1.9925zm7.2313 7.7823c0 .241-.1777.4372-.3955.4372c-.2183 0-.3953-.196-.3953-.4372c0-.0615.0119-.1199.0322-.1727l.7236-.0058c.0217.0546.035.1148.035.1785" fill-opacity="0.498" fill="#FFFFFF"></path></svg>